<svg xmlns="http://www.w3.org/2000/svg" width="1280" height="720" viewBox="0 0 1280 720">
  <defs>
    <style>
      text{font-family:"Microsoft YaHei","SimHei",Arial,sans-serif;fill:#10213f}
      .title{font-size:30px;font-weight:800}.sub{font-size:15px;fill:#697896}
      .card{fill:#fff;stroke:#d9e3f2;stroke-width:2;rx:18}
      .h{font-size:20px;font-weight:800}.small{font-size:14px;fill:#5c6c88}.num{font-size:28px;font-weight:800}
      .grid{stroke:#dfe7f2;stroke-width:1}.axis{stroke:#9aa8bd;stroke-width:2}
    </style>
  </defs>
  <rect width="1280" height="720" fill="#f4f7fc"/>
  <text x="48" y="54" class="title">系统运行事件统计（events_latest.csv）</text>
  <text x="48" y="84" class="sub">共 362 条事件，统计时间覆盖 2026-05-31 至 2026-06-07</text>
  <rect x="50" y="118" width="1180" height="92" class="card"/>
  <text x="90" y="162" class="small">总事件</text><text x="90" y="194" class="num">362</text>
  <text x="260" y="162" class="small">跌倒</text><text x="260" y="194" class="num">160</text>
  <text x="430" y="162" class="small">微笑</text><text x="430" y="194" class="num">92</text>
  <text x="600" y="162" class="small">人物识别</text><text x="600" y="194" class="num">55</text>
  <text x="810" y="162" class="small">心情异常</text><text x="810" y="194" class="num">45</text>
  <text x="1020" y="162" class="small">陌生/闯入</text><text x="1020" y="194" class="num">9</text>
  <rect x="50" y="245" width="555" height="410" class="card"/>
  <text x="82" y="290" class="h">事件类型分布</text>
  <g transform="translate(92,330)">
    <text x="0" y="28" class="small">fall</text><rect x="100" y="10" width="400" height="18" rx="9" fill="#eef3fb"/><rect x="100" y="10" width="400" height="18" rx="9" fill="#ef4f62"/><text x="512" y="26" class="small">160</text>
    <text x="0" y="75" class="small">smile</text><rect x="100" y="57" width="400" height="18" rx="9" fill="#eef3fb"/><rect x="100" y="57" width="230" height="18" rx="9" fill="#24c487"/><text x="512" y="73" class="small">92</text>
    <text x="0" y="122" class="small">face</text><rect x="100" y="104" width="400" height="18" rx="9" fill="#eef3fb"/><rect x="100" y="104" width="138" height="18" rx="9" fill="#4f6ef7"/><text x="512" y="120" class="small">55</text>
    <text x="0" y="169" class="small">emotion</text><rect x="100" y="151" width="400" height="18" rx="9" fill="#eef3fb"/><rect x="100" y="151" width="113" height="18" rx="9" fill="#f5a230"/><text x="512" y="167" class="small">45</text>
    <text x="0" y="216" class="small">stranger</text><rect x="100" y="198" width="400" height="18" rx="9" fill="#eef3fb"/><rect x="100" y="198" width="18" height="18" rx="9" fill="#7c58f2"/><text x="512" y="214" class="small">7</text>
    <text x="0" y="263" class="small">intrusion</text><rect x="100" y="245" width="400" height="18" rx="9" fill="#eef3fb"/><rect x="100" y="245" width="6" height="18" rx="3" fill="#2ab7c9"/><text x="512" y="261" class="small">2</text>
  </g>
  <rect x="655" y="245" width="575" height="410" class="card"/>
  <text x="690" y="290" class="h">近 8 日事件趋势</text>
  <g transform="translate(705,340)">
    <line x1="0" y1="270" x2="470" y2="270" class="axis"/><line x1="0" y1="0" x2="0" y2="270" class="axis"/>
    <line x1="0" y1="202" x2="470" y2="202" class="grid"/><line x1="0" y1="135" x2="470" y2="135" class="grid"/><line x1="0" y1="67" x2="470" y2="67" class="grid"/>
    <polyline fill="none" stroke="#4f6ef7" stroke-width="4" points="0,255 67,246 134,246 201,234 268,252 335,253 402,0 469,134"/>
    <polygon fill="#4f6ef7" opacity=".14" points="0,255 67,246 134,246 201,234 268,252 335,253 402,0 469,134 469,270 0,270"/>
    <text x="-8" y="294" class="small">05-31</text><text x="62" y="294" class="small">06-01</text><text x="129" y="294" class="small">06-02</text><text x="196" y="294" class="small">06-03</text><text x="263" y="294" class="small">06-04</text><text x="330" y="294" class="small">06-05</text><text x="397" y="294" class="small">06-06</text><text x="464" y="294" class="small">06-07</text>
    <text x="-42" y="8" class="small">182</text><text x="-30" y="140" class="small">91</text><text x="-24" y="274" class="small">0</text>
  </g>
</svg>
